<?xml version="1.0" standalone="no"?><!DOCTYPE svg PUBLIC "-//W3C//DTD SVG 1.1//EN" "http://www.w3.org/Graphics/SVG/1.1/DTD/svg11.dtd"><svg t="1699519556617" class="icon" viewBox="0 0 1024 1024" version="1.1" xmlns="http://www.w3.org/2000/svg" p-id="1234" xmlns:xlink="http://www.w3.org/1999/xlink" width="200" height="200"><path d="M947.2 437.25312l-359.59808 0L587.60192 77.65504c0-39.58784-32.09216-71.68-71.68-71.68l-6.12864 0c-39.58272 0-71.68 32.09216-71.68 71.68l0 359.59808L78.5152 437.25312c-39.58784 0-71.68 32.09728-71.68 71.68l0 6.12864c0 39.58784 32.09216 71.68 71.68 71.68l359.59296 0 0 359.59296c0 39.58784 32.09728 71.68 71.68 71.68l6.12864 0c39.58784 0 71.68-32.09216 71.68-71.68L587.5968 586.752 947.2 586.752c39.58272 0 71.68-32.09216 71.68-71.68512l0-6.12864C1018.88 469.3504 986.78272 437.25312 947.2 437.25312z" p-id="1235"></path></svg>