<?xml version="1.0" standalone="no"?><!DOCTYPE svg PUBLIC "-//W3C//DTD SVG 1.1//EN" "http://www.w3.org/Graphics/SVG/1.1/DTD/svg11.dtd"><svg t="1699519591095" class="icon" viewBox="0 0 1045 1024" version="1.1" xmlns="http://www.w3.org/2000/svg" p-id="1687" xmlns:xlink="http://www.w3.org/1999/xlink" width="204.1015625" height="200"><path d="M505.248 570.694c2.035 2.758 4.775 4.467 7.802 4.467s5.767-1.709 7.802-4.467l163.162-221.594c1.094-1.492 1.523-3.885 0.941-6.041-0.602-2.138-2.022-3.456-3.526-3.456h-105.562v-225.235c0-4.211-1.114-8.422-3.335-11.584-2.227-3.232-5.152-4.845-8.064-4.845h-102.816c-2.912 0-5.837 1.606-8.064 4.845-2.228 3.168-3.335 7.379-3.335 11.584v225.235h-105.568c-1.504 0-2.925 1.318-3.526 3.456-0.582 2.157-0.172 4.538 0.941 6.041l163.148 221.594z" p-id="1688"></path><path d="M905.93 629.399l-127.474-88.47h-79.65l133.622 108.141-146.908-1.924c-4.258 0-10.378 4.106-12.307 7.521l-40.809 98.697h-238.95l-40.809-98.697c-1.913-3.414-8.033-7.521-12.308-7.521h-146.031l132.767-106.217h-79.685l-127.456 88.47c-19.901 11.942-31.859 39.425-26.522 61.132l23.632 129.594c5.372 21.691 29.063 39.426 52.667 39.426h686.458c23.586 0 47.296-17.735 52.667-39.426l23.603-129.594c5.355-21.707-6.587-49.191-26.505-61.132v0 0z" p-id="1689"></path></svg>