<?xml version="1.0" standalone="no"?><!DOCTYPE svg PUBLIC "-//W3C//DTD SVG 1.1//EN" "http://www.w3.org/Graphics/SVG/1.1/DTD/svg11.dtd"><svg t="1699339853878" class="icon" viewBox="0 0 1024 1024" version="1.1" xmlns="http://www.w3.org/2000/svg" p-id="1420" xmlns:xlink="http://www.w3.org/1999/xlink" width="200" height="200"><path d="M513.089989 0.01q-1.01999 0-8.18992 1.01999-7.17993 1.01999-16.39984 6.13994-37.90963 29.70971-241.787638 197.738069L14.134862 396.496128q-3.06997 0-11.779885 18.959815-8.709915 18.949815 14.859855 53.789475 28.67972 30.7297 52.23949 19.459809 23.55977-11.26989 24.58976-15.369849l418.015917-367.806409 425.175848 373.956349q1.02999 3.06997 22.53978 9.729905 21.50979 6.659935 49.17952-22.019785 22.53978-32.78968 11.26989-53.27948-11.26989-20.4898-14.33986-20.4898l-124.998779-102.458999V111.678909H712.868038v40.9796L539.719729 9.21991q0-1.01999-7.16993-5.11995-7.17993-4.09996-19.46981-4.09996z m0 158.808449L92.004102 524.574877v308.386989l342.196658 1.02999V580.924327l155.728479 2.04998v249.987559l342.196658 1.02999V525.604867L513.089989 158.818449z" p-id="1421"></path></svg>