<?xml version="1.0" standalone="no"?><!DOCTYPE svg PUBLIC "-//W3C//DTD SVG 1.1//EN" "http://www.w3.org/Graphics/SVG/1.1/DTD/svg11.dtd"><svg t="1701675674592" class="icon" viewBox="0 0 1024 1024" version="1.1" xmlns="http://www.w3.org/2000/svg" p-id="1384" xmlns:xlink="http://www.w3.org/1999/xlink" width="200" height="200"><path d="M192.13824 832V192h512v262.4a320 320 0 0 1 64-6.4V170.88a42.88 42.88 0 0 0-42.88-42.88H171.01824a42.88 42.88 0 0 0-42.88 42.88v682.24a42.88 42.88 0 0 0 42.88 42.88h305.28a311.68 311.68 0 0 1-21.12-64z" p-id="1385"></path><path d="M448.13824 64h96a32 32 0 0 0 0-64H43.01824A42.88 42.88 0 0 0 0.13824 42.88v490.24a39.68 39.68 0 0 0 0 5.12 30.08 30.08 0 0 0 0 5.76v128a32 32 0 0 0 64 0V64h384zM768.13824 512a256 256 0 1 0 256 256 256 256 0 0 0-256-256z m0 448a192 192 0 1 1 144-320L768.13824 786.56l-73.6-73.6a32 32 0 0 0-45.44 45.44l96 96a32 32 0 0 0 45.44 0l156.16-156.16A192 192 0 0 1 960.13824 768a192 192 0 0 1-192 192z" p-id="1386"></path></svg>