<?xml version="1.0" standalone="no"?><!DOCTYPE svg PUBLIC "-//W3C//DTD SVG 1.1//EN" "http://www.w3.org/Graphics/SVG/1.1/DTD/svg11.dtd"><svg t="1699339805724" class="icon" viewBox="0 0 1024 1024" version="1.1" xmlns="http://www.w3.org/2000/svg" p-id="1023" xmlns:xlink="http://www.w3.org/1999/xlink" width="200" height="200"><path d="M384 320H192c-52.8 0-96-43.2-96-96v-64c0-52.8 43.2-96 96-96h192c52.8 0 96 43.2 96 96v64c0 52.8-43.2 96-96 96zM832 960H640c-52.8 0-96-43.2-96-96v-64c0-52.8 43.2-96 96-96h192c52.8 0 96 43.2 96 96v64c0 52.8-43.2 96-96 96zM832 640H640c-52.8 0-96-43.2-96-96v-64c0-52.8 43.2-96 96-96h192c52.8 0 96 43.2 96 96v64c0 52.8-43.2 96-96 96z" p-id="1024" fill="#a7b1c2"></path><path d="M575.094 864H288c-17.6 0-32-14.4-32-32s14.4-32 32-32h287.094v64z" p-id="1025" fill="#a7b1c2"></path><path d="M288 864c-17.6 0-32-14.4-32-32V288h64v544c0 17.6-14.4 32-32 32z" p-id="1026" fill="#a7b1c2"></path><path d="M288 481h288v64H288z" p-id="1027" ></path></svg>