<?xml version="1.0" standalone="no"?><!DOCTYPE svg PUBLIC "-//W3C//DTD SVG 1.1//EN" "http://www.w3.org/Graphics/SVG/1.1/DTD/svg11.dtd"><svg t="1699433610542" class="icon" viewBox="0 0 1024 1024" version="1.1" xmlns="http://www.w3.org/2000/svg" p-id="1054" xmlns:xlink="http://www.w3.org/1999/xlink" width="200" height="200"><path d="M512 896c-134.4 0-256-70.4-326.4-185.6L320 576H0v320l89.6-89.6C185.6 940.8 339.2 1024 512 1024c256 0 473.6-185.6 505.6-441.6l-128-19.2C864 755.2 704 896 512 896z m422.4-678.4C838.4 83.2 684.8 0 512 0 256 0 38.4 185.6 6.4 441.6l128 19.2C160 268.8 320 128 512 128c134.4 0 256 70.4 326.4 185.6L704 448h320V128l-89.6 89.6z" p-id="1055"></path></svg>