<?xml version="1.0" standalone="no"?><!DOCTYPE svg PUBLIC "-//W3C//DTD SVG 1.1//EN" "http://www.w3.org/Graphics/SVG/1.1/DTD/svg11.dtd"><svg t="1698911802619" class="icon" viewBox="0 0 1024 1024" version="1.1" xmlns="http://www.w3.org/2000/svg" p-id="4389" xmlns:xlink="http://www.w3.org/1999/xlink" width="200" height="200"><path d="M564.319256 244.640744c-199.846698 110.258605-244.61693 385.905116-244.61693 385.905116s137.811349 62.035349 382.452093-158.505674C946.795163 251.522977 981.253953 0 981.253953 0s-217.088 134.38214-416.934697 244.640744zM354.161116 761.474977c-113.711628-13.788279-279.099535 51.676279-279.099535 51.676279s-79.276651 51.676279 189.487628 151.623442c268.764279 99.923349 554.76986-41.364837 554.769861-41.364838-31.029581-13.788279-351.47014-148.122791-465.157954-161.934883zM37.149767 482.375442C47.485023 392.811163 140.502326 20.670512 140.502326 20.670512c34.482605 44.794047 106.829395 220.517209 127.499907 434.152186 20.670512 213.611163-117.164651 285.981767-117.164652 285.981767C102.63814 709.798698 26.814512 571.963535 37.149767 482.375442z" p-id="4390" fill="#88be6e"></path></svg>