<?xml version="1.0" standalone="no"?><!DOCTYPE svg PUBLIC "-//W3C//DTD SVG 1.1//EN" "http://www.w3.org/Graphics/SVG/1.1/DTD/svg11.dtd"><svg t="1701675775150" class="icon" viewBox="0 0 1024 1024" version="1.1" xmlns="http://www.w3.org/2000/svg" p-id="1534" xmlns:xlink="http://www.w3.org/1999/xlink" width="200" height="200"><path d="M768.1368 511.99904a255.99952 255.99952 0 0 0-191.99964 426.239201 29.439945 29.439945 0 0 0 19.839963 19.839963A255.99952 255.99952 0 1 0 768.1368 511.99904z m-191.99964 255.99952a191.99964 191.99964 0 0 1 303.99943-154.87971 30.719942 30.719942 0 0 0-7.039987 4.479992l-261.11951 261.11951A191.99964 191.99964 0 0 1 576.13716 767.99856z m191.99964 191.99964a191.99964 191.99964 0 0 1-110.719792-35.839933l261.759509-261.759509a30.719942 30.719942 0 0 0 4.479991-7.039987A191.99964 191.99964 0 0 1 768.1368 959.9982z" p-id="1535"></path><path d="M192.13788 831.99844V191.99964h511.99904v262.399508a319.9994 319.9994 0 0 1 63.99988-6.399988V170.87968a42.87992 42.87992 0 0 0-42.87992-42.87992H171.01792a42.87992 42.87992 0 0 0-42.87992 42.87992v682.23872a42.87992 42.87992 0 0 0 42.87992 42.87992h305.279427a311.679416 311.679416 0 0 1-21.11996-63.99988z" p-id="1536"></path><path d="M448.1374 63.99988h95.99982a31.99994 31.99994 0 0 0 0-63.99988H43.01816A42.87992 42.87992 0 0 0 0.13824 42.87992v490.23908a39.679926 39.679926 0 0 0 0 5.119991 30.079944 30.079944 0 0 0 0 5.759989v127.99976a31.99994 31.99994 0 0 0 63.99988 0V63.99988h383.99928z" p-id="1537"></path></svg>