<?xml version="1.0" standalone="no"?><!DOCTYPE svg PUBLIC "-//W3C//DTD SVG 1.1//EN" "http://www.w3.org/Graphics/SVG/1.1/DTD/svg11.dtd"><svg t="1700638478907" class="icon" viewBox="0 0 1024 1024" version="1.1" xmlns="http://www.w3.org/2000/svg" p-id="1324" xmlns:xlink="http://www.w3.org/1999/xlink" width="200" height="200"><path d="M268.2 366.2c78.2 0 141.8-63.6 141.8-141.8 0-78.2-63.6-141.8-141.8-141.8-78.2 0-141.8 63.6-141.8 141.8 0 78.1 63.6 141.8 141.8 141.8z m0-213.7c39.6 0 71.8 32.2 71.8 71.8s-32.2 71.8-71.8 71.8-71.8-32.2-71.8-71.8 32.2-71.8 71.8-71.8zM402.6 396.5H133.9c-25.9 0-47 21.1-47 47v349.9c0 25.9 21.1 47 47 47h104.6v69.4c0 19.3 15.7 35 35 35s35-15.7 35-35v-69.4h94c25.9 0 47-21.1 47-47V443.5c0.1-26-21-47-46.9-47z m-23 373.9H156.9V466.5h222.6v303.9zM708.3 475.4H583.2V204h117.7c19.3 0 35-15.7 35-35s-15.7-35-35-35h-171c-9.2 0-16.7 7.5-16.7 16.7v735.7c0 9.2 7.5 16.7 16.7 16.7h178.4c19.3 0 35-15.7 35-35s-15.7-35-35-35H583.2V545.4h125.1c19.3 0 35-15.7 35-35s-15.7-35-35-35z" p-id="1325"></path><path d="M844.9 169m-55.7 0a55.7 55.7 0 1 0 111.4 0 55.7 55.7 0 1 0-111.4 0Z" p-id="1326"></path><path d="M844.9 513.9m-55.7 0a55.7 55.7 0 1 0 111.4 0 55.7 55.7 0 1 0-111.4 0Z" p-id="1327"></path><path d="M844.9 858.8m-55.7 0a55.7 55.7 0 1 0 111.4 0 55.7 55.7 0 1 0-111.4 0Z" p-id="1328"></path></svg>