<?xml version="1.0" standalone="no"?><!DOCTYPE svg PUBLIC "-//W3C//DTD SVG 1.1//EN" "http://www.w3.org/Graphics/SVG/1.1/DTD/svg11.dtd"><svg t="1699412990208" class="icon" viewBox="0 0 1197 1024" version="1.1" xmlns="http://www.w3.org/2000/svg" p-id="1024" xmlns:xlink="http://www.w3.org/1999/xlink" width="233.7890625" height="200"><path d="M947.2 157.866667a46.08 46.08 0 0 0-29.866667-12.8 38.4 38.4 0 0 0-29.866666 12.8l-89.6 85.333333a41.813333 41.813333 0 1 0 59.733333 59.733333l59.733333-59.733333 59.733334 59.733333a41.813333 41.813333 0 1 0 59.733333-59.733333z" fill="#a7b1c2" p-id="1025"></path><path d="M1109.333333 0H85.333333a85.333333 85.333333 0 0 0-85.333333 85.333333v853.333334a85.333333 85.333333 0 0 0 85.333333 85.333333h1024a85.333333 85.333333 0 0 0 85.333334-85.333333V85.333333a85.333333 85.333333 0 0 0-85.333334-85.333333z m0 894.293333a42.666667 42.666667 0 0 1-42.666666 41.813334h-938.666667a42.666667 42.666667 0 0 1-42.666667-41.813334v-426.666666h1024z m0-512H85.333333v-256A42.666667 42.666667 0 0 1 128 85.333333h938.666667a42.666667 42.666667 0 0 1 42.666666 42.666667z" p-id="1026"></path></svg>