<?xml version="1.0" standalone="no"?><!DOCTYPE svg PUBLIC "-//W3C//DTD SVG 1.1//EN" "http://www.w3.org/Graphics/SVG/1.1/DTD/svg11.dtd"><svg t="1699519854788" class="icon" viewBox="0 0 1024 1024" version="1.1" xmlns="http://www.w3.org/2000/svg" p-id="1234" xmlns:xlink="http://www.w3.org/1999/xlink" width="200" height="200"><path d="M346.112 674.304l221.696-62.976L409.6 453.632l-63.488 220.672z m592.384-431.616l-158.208-157.184-348.672 346.112 158.208 157.184 348.672-346.112z m-46.08 583.168c0 54.784-44.544 99.328-99.328 99.328H198.656c-54.784 0-99.328-44.544-99.328-99.328V231.424c0-54.784 44.544-99.328 99.328-99.328h396.288l99.328-99.328H165.888C74.752 33.28 0.512 107.008 0.512 198.144v660.48c0 91.136 73.728 165.376 165.376 165.376h660.48c91.136 0 165.376-73.728 165.376-165.376V330.24l-99.328 99.328v396.288z m119.808-715.264L913.408 12.288c-16.384-16.384-44.032-15.36-61.44 2.048l-47.616 47.104L962.56 218.624l47.616-47.104c17.408-17.408 18.432-44.544 2.048-60.928z" p-id="1235"></path></svg>