<?xml version="1.0" standalone="no"?><!DOCTYPE svg PUBLIC "-//W3C//DTD SVG 1.1//EN" "http://www.w3.org/Graphics/SVG/1.1/DTD/svg11.dtd"><svg t="1699434529629" class="icon" viewBox="0 0 1024 1024" version="1.1" xmlns="http://www.w3.org/2000/svg" p-id="1206" id="mx_n_1699434529630" xmlns:xlink="http://www.w3.org/1999/xlink" width="200" height="200"><path d="M916.6336 514.2016c21.0944 0 41.4208 6.144 57.1904 17.2544l0.8192 0.6144c15.36 11.9296 23.7568 27.648 23.7568 44.0832 0 16.5376-8.448 32.2048-23.7568 44.1856l-403.3536 309.248a94.208 94.208 0 0 1-59.2896 17.5104c-22.1184 0.8704-44.032-5.632-59.4432-17.664L49.5104 620.4416C34.048 608.3584 25.6 592.6912 25.6 576.2048c0-16.5376 8.448-32.2048 23.7568-44.1344 14.4384-11.8784 34.5088-18.5856 56.1664-18.5856 21.4016 0 41.6768 6.656 56.9856 18.5856l349.44 267.4176 348.5184-267.52c14.6432-11.4176 34.6624-17.7664 56.1664-17.7664z m-404.0704 47.4112c-22.1184 0.8704-44.032-5.632-59.4944-17.664L49.5104 234.9056C34.048 222.8224 25.6 207.1552 25.6 190.6688c0-16.4864 8.448-32.1536 23.808-44.1344 14.4384-11.8272 34.5088-18.5344 56.2176-18.5344 21.4528 0 41.728 6.6048 57.0368 18.5344L511.488 414.0032l350.0544-267.5712c14.592-11.4176 34.56-17.7664 56.0128-17.7664 21.248 0 41.3696 6.2464 56.6784 17.5616 32.1536 25.088 32.1536 63.8464 0.4096 88.576l-403.8144 309.248a93.2352 93.2352 0 0 1-58.2656 17.5616z" p-id="1207"></path></svg>