<?xml version="1.0" standalone="no"?><!DOCTYPE svg PUBLIC "-//W3C//DTD SVG 1.1//EN" "http://www.w3.org/Graphics/SVG/1.1/DTD/svg11.dtd"><svg t="1699519581157" class="icon" viewBox="0 0 1024 1024" version="1.1" xmlns="http://www.w3.org/2000/svg" p-id="1537" xmlns:xlink="http://www.w3.org/1999/xlink" width="200" height="200"><path d="M468.223 290.482l107.089 62.598C455.11 563.893 340.41 637.29 169.521 551.336l-0.008-0.029v23.83c255.029 216.434 425.521 75.826 548.025-138.921l109.104 63.743c7.688 4.511 17.036 4.403 23.969-0.809 6.865-5.173 9.817-14.196 7.403-22.676l-52.631-327.589c-3.299-11.568-15.482-18.699-27.059-15.742l-305.65 118.06c-5.79 1.416-10.435 5.054-13.123 9.832-1.414 2.422-2.291 5.187-2.628 8.008-1.021 8.711 3.63 16.971 11.3 21.439z" p-id="1538"></path><path d="M891.066 477.246v348.925c0 38.094-30.894 68.926-68.926 68.926H201.83c-38.094 0-68.926-30.838-68.926-68.926V266.172c0-38.061 30.828-68.926 68.926-68.926h137.846v-64.614H201.83c-76.124 0-137.84 61.714-137.84 137.84v551.375c0 76.118 61.714 137.846 137.84 137.846h620.305l-0.002 0.002c76.126 0 137.857-61.714 137.857-137.84V477.246h-68.924z" p-id="1539"></path></svg>