<?xml version="1.0" standalone="no"?><!DOCTYPE svg PUBLIC "-//W3C//DTD SVG 1.1//EN" "http://www.w3.org/Graphics/SVG/1.1/DTD/svg11.dtd"><svg t="1703838235469" class="icon" viewBox="0 0 1024 1024" version="1.1" xmlns="http://www.w3.org/2000/svg" p-id="1400" xmlns:xlink="http://www.w3.org/1999/xlink" width="200" height="200"><path d="M632.527307 498.500942q39.532957 14.463277 72.316384 39.532957t56.888889 58.335217 37.122411 73.280603 13.016949 83.404896q0 56.888889-21.212806 106.06403t-58.335217 85.815443-86.297552 57.853107-105.099812 21.212806-105.099812-21.212806-86.297552-57.853107-58.335217-85.815443-21.212806-106.06403q0-44.354049 13.499058-84.369115t37.60452-73.280603 57.370998-58.335217 72.798493-39.532957l0-404.971751q0-17.355932 6.26742-33.747646t17.838041-29.408663 27.480226-21.212806 34.229755-8.195857 35.676083 8.195857 30.854991 21.212806 21.212806 29.408663 7.713748 33.747646l0 405.93597zM542.854991 846.583804q38.568738 0 65.566855-26.998117t26.998117-66.531073q0-38.568738-26.998117-65.566855t-65.566855-26.998117q-39.532957 0-66.531073 26.998117t-26.998117 65.566855q0 39.532957 26.998117 66.531073t66.531073 26.998117zM751.126177 121.491525q61.709981 0 61.709981 57.853107l0 62.6742q0 33.747646-16.873823 46.764595t-37.122411 13.016949l-66.531073 0 0-180.308851 58.817326 0z" p-id="1401"></path></svg>